HIERARCHY
ROOT joint_Root
{
	OFFSET 0.0 0.0 0.0
	CHANNELS 6 Xposition Yposition Zposition Zrotation Xrotation Yrotation 
	JOINT Hips
	{
		OFFSET 4.5925 91.4895 -427.239
		CHANNELS 6 Xposition Yposition Zposition Zrotation Xrotation Yrotation 
		JOINT Spine
		{
			OFFSET 15.7357 0.0 0.0
			CHANNELS 6 Xposition Yposition Zposition Zrotation Xrotation Yrotation 
			JOINT Chest
			{
				OFFSET 8.98455 -0.406207 0.0
				CHANNELS 6 Xposition Yposition Zposition Zrotation Xrotation Yrotation 
				JOINT Neck
				{
					OFFSET 16.3773 0.0 0.0
					CHANNELS 6 Xposition Yposition Zposition Zrotation Xrotation Yrotation 
					JOINT Head
					{
						OFFSET 6.45672 0.0 0.0
						CHANNELS 6 Xposition Yposition Zposition Zrotation Xrotation Yrotation 
						End Site
						{
							OFFSET 0.0 0.0 0.0
						}
					}
				}
				JOINT Shoulder_L
				{
					OFFSET 12.9942 -0.242716 4.98039
					CHANNELS 6 Xposition Yposition Zposition Zrotation Xrotation Yrotation 
					JOINT UpperArm_L
					{
						OFFSET 5.34809 0.0 0.0
						CHANNELS 6 Xposition Yposition Zposition Zrotation Xrotation Yrotation 
						JOINT LowerArm_L
						{
							OFFSET 24.3286 1.87007e-05 0.0
							CHANNELS 6 Xposition Yposition Zposition Zrotation Xrotation Yrotation 
							JOINT Hand_L
							{
								OFFSET 22.2916 0.0 0.0
								CHANNELS 6 Xposition Yposition Zposition Zrotation Xrotation Yrotation 
								End Site
								{
									OFFSET 0.0 0.0 0.0
								}
							}
						}
					}
				}
				JOINT Shoulder_R
				{
					OFFSET 12.9945 -0.242716 -4.98039
					CHANNELS 6 Xposition Yposition Zposition Zrotation Xrotation Yrotation 
					JOINT UpperArm_R
					{
						OFFSET -5.34813 0.0 0.0
						CHANNELS 6 Xposition Yposition Zposition Zrotation Xrotation Yrotation 
						JOINT LowerArm_R
						{
							OFFSET -24.3289 0.000322201 0.0
							CHANNELS 6 Xposition Yposition Zposition Zrotation Xrotation Yrotation 
							JOINT Hand_R
							{
								OFFSET -22.2915 -0.000108084 0.0
								CHANNELS 6 Xposition Yposition Zposition Zrotation Xrotation Yrotation 
								End Site
								{
									OFFSET 0.0 0.0 0.0
								}
							}
						}
					}
				}
			}
		}
		JOINT UpperLeg_L
		{
			OFFSET -2.19248 -6.46944 0.0
			CHANNELS 6 Xposition Yposition Zposition Zrotation Xrotation Yrotation 
			JOINT LowerLeg_L
			{
				OFFSET 39.0811 0.0 -1.23785e-05
				CHANNELS 6 Xposition Yposition Zposition Zrotation Xrotation Yrotation 
				JOINT Foot_L
				{
					OFFSET 40.9854 0.0 -1.26872e-05
					CHANNELS 6 Xposition Yposition Zposition Zrotation Xrotation Yrotation 
					JOINT Toes_L
					{
						OFFSET 11.7543 0.0 0.0
						CHANNELS 6 Xposition Yposition Zposition Zrotation Xrotation Yrotation 
						End Site
						{
							OFFSET 0.0 0.0 0.0
						}
					}
				}
			}
		}
		JOINT UpperLeg_R
		{
			OFFSET -2.19251 6.46944 0.0
			CHANNELS 6 Xposition Yposition Zposition Zrotation Xrotation Yrotation 
			JOINT LowerLeg_R
			{
				OFFSET -39.0811 -0.00228153 -0.0401928
				CHANNELS 6 Xposition Yposition Zposition Zrotation Xrotation Yrotation 
				JOINT Foot_R
				{
					OFFSET -40.9854 0.0 0.0
					CHANNELS 6 Xposition Yposition Zposition Zrotation Xrotation Yrotation 
					JOINT Toes_R
					{
						OFFSET -11.7543 0.0 0.0
						CHANNELS 6 Xposition Yposition Zposition Zrotation Xrotation Yrotation 
						End Site
						{
							OFFSET 0.0 0.0 0.0
						}
					}
				}
			}
		}
	}
}
MOTION
Frames:	9
Frame Time:	0.0333333
0.000000 0.000000 0.000000 0.000000 0.000000 -0.000000 -0.977745 90.249700 -3.767590 88.721900 -2.140370 10.401700 15.735700 0.000005 -0.000001 86.791400 76.804700 -87.570000 8.984550 -0.406207 -0.000000 18.577600 -1.521470 -1.312160 16.377300 -0.000001 -0.000001 11.794300 -3.595210 2.797970 6.456720 -0.000001 -0.000000 -9.272000 -1.616440 -4.104450 12.994200 -0.242716 4.980390 -91.077800 4.680460 -77.017200 5.348090 -0.000007 -0.000001 -48.803600 41.926200 -35.144300 24.328600 0.000019 0.000005 6.429190 16.635500 -21.485000 22.291600 -0.000001 0.000005 10.655800 5.244770 1.570500 12.994500 -0.242716 -4.980390 89.762100 1.000510 -76.627200 -5.348130 -0.000001 -0.000004 -74.137700 -13.326500 -81.119800 -24.328900 0.000322 -0.000009 19.334100 -8.596420 -113.075000 -22.291500 -0.000108 -0.000004 23.513300 5.230040 1.954390 -2.192480 -6.469440 -0.000000 -173.877000 -10.742800 -4.580970 39.081100 -0.000007 -0.000012 -0.198521 0.283011 35.048500 40.985400 -0.000006 -0.000013 -0.391045 4.230200 -69.815400 11.754300 -0.000000 0.000003 -0.000132 -0.001301 -16.627200 -2.192510 6.469440 -0.000001 176.325000 19.640500 176.876000 -39.081100 -0.002282 -0.040193 -0.030457 0.049698 34.180500 -40.985400 0.000008 0.000006 6.861260 11.596100 -71.243600 -11.754300 -0.000006 -0.000006 -0.002536 -0.035241 -18.006200
0.000000 0.000000 0.000000 0.000000 0.000000 -0.000000 -0.965227 90.253500 -3.790310 88.743900 -2.161590 10.399400 15.735700 0.000005 -0.000001 86.781300 76.815100 -87.569000 8.984550 -0.406207 -0.000000 18.556600 -1.525620 -1.329800 16.377300 -0.000001 -0.000001 11.755900 -3.572870 2.785490 6.456720 -0.000001 -0.000000 -9.241460 -1.630480 -4.084980 12.994200 -0.242716 4.980390 -91.072200 4.655320 -77.014800 5.348090 -0.000007 -0.000001 -48.942800 41.897800 -35.099900 24.328600 0.000019 0.000005 6.417090 16.678700 -21.398900 22.291600 -0.000001 0.000005 10.622800 5.245750 1.544730 12.994500 -0.242716 -4.980390 89.766500 0.983482 -76.643600 -5.348130 -0.000001 -0.000004 -74.117900 -13.385100 -81.019700 -24.328900 0.000322 -0.000009 19.318300 -8.602790 -113.108000 -22.291500 -0.000108 -0.000004 23.391100 5.228060 2.005620 -2.192480 -6.469440 -0.000000 -173.914000 -10.729400 -4.584340 39.081100 -0.000007 -0.000012 -0.196417 0.280264 35.024200 40.985400 -0.000006 -0.000013 -0.389227 4.210410 -69.792800 11.754300 -0.000000 0.000003 -0.000138 -0.001350 -16.629000 -2.192510 6.469440 -0.000001 176.298000 19.607300 176.859000 -39.081100 -0.002282 -0.040193 -0.031403 0.051113 34.168700 -40.985400 0.000008 0.000006 6.770710 11.636400 -71.200000 -11.754300 -0.000006 -0.000006 -0.002547 -0.035361 -18.011000
0.000000 0.000000 0.000000 0.000000 0.000000 -0.000000 -0.961033 90.262000 -3.815090 88.759500 -2.157340 10.397700 15.735700 0.000005 -0.000001 86.722700 76.818500 -87.508400 8.984550 -0.406207 -0.000000 18.548200 -1.551440 -1.321820 16.377300 -0.000001 -0.000001 11.697800 -3.580210 2.771550 6.456720 -0.000001 -0.000000 -9.221450 -1.602330 -4.133000 12.994200 -0.242716 4.980390 -91.073700 4.669570 -77.035500 5.348090 -0.000007 -0.000001 -48.938200 41.946500 -35.073300 24.328600 0.000019 0.000005 6.404520 16.625700 -21.420500 22.291600 -0.000001 0.000005 10.608800 5.244900 1.567150 12.994500 -0.242716 -4.980390 89.763300 0.994535 -76.614000 -5.348130 -0.000001 -0.000004 -74.091500 -13.364400 -81.071500 -24.328900 0.000322 -0.000009 19.355700 -8.571790 -112.991000 -22.291500 -0.000108 -0.000004 23.416800 5.227910 2.009480 -2.192480 -6.469440 -0.000000 -173.940000 -10.744100 -4.585280 39.081100 -0.000007 -0.000012 -0.193392 0.276365 34.983500 40.985400 -0.000006 -0.000013 -0.378357 4.218190 -69.754900 11.754300 -0.000000 0.000003 -0.000140 -0.001368 -16.629600 -2.192510 6.469440 -0.000001 176.271000 19.618400 176.859000 -39.081100 -0.002282 -0.040193 -0.036866 0.059237 34.134700 -40.985400 0.000008 0.000006 6.712850 11.665500 -71.153800 -11.754300 -0.000006 -0.000006 -0.002447 -0.034183 -17.963100
0.000000 0.000000 0.000000 0.000000 0.000000 -0.000000 -0.955140 90.266300 -3.840810 88.763700 -2.167370 10.402500 15.735700 0.000005 -0.000001 86.710800 76.818900 -87.489600 8.984550 -0.406207 -0.000000 18.547300 -1.556110 -1.307190 16.377300 -0.000001 -0.000001 11.643300 -3.569770 2.773830 6.456720 -0.000001 -0.000000 -9.187720 -1.607850 -4.191350 12.994200 -0.242716 4.980390 -91.085800 4.713870 -77.012800 5.348090 -0.000007 -0.000001 -48.909400 41.977000 -35.050800 24.328600 0.000019 0.000005 6.450950 16.649800 -21.535300 22.291600 -0.000001 0.000005 10.603500 5.242890 1.619910 12.994500 -0.242716 -4.980390 89.760900 1.002820 -76.587000 -5.348130 -0.000001 -0.000004 -74.107800 -13.354100 -81.164900 -24.328900 0.000322 -0.000009 19.339500 -8.531470 -112.913000 -22.291500 -0.000108 -0.000004 23.449700 5.230660 1.938380 -2.192480 -6.469440 -0.000000 -173.946000 -10.753500 -4.592480 39.081100 -0.000007 -0.000012 -0.191962 0.274491 34.966900 40.985400 -0.000006 -0.000013 -0.373367 4.224710 -69.726600 11.754300 -0.000000 0.000003 -0.000131 -0.001294 -16.626900 -2.192510 6.469440 -0.000001 176.267000 19.599500 176.851000 -39.081100 -0.002282 -0.040193 -0.039434 0.063068 34.116500 -40.985400 0.000008 0.000006 6.660860 11.667900 -71.112500 -11.754300 -0.000006 -0.000006 -0.002544 -0.035332 -18.009900
0.000000 0.000000 0.000000 0.000000 0.000000 -0.000000 -0.953405 90.277000 -3.864810 88.764800 -2.177450 10.405300 15.735700 0.000005 -0.000001 86.706000 76.825500 -87.483500 8.984550 -0.406207 -0.000000 18.533800 -1.557350 -1.304590 16.377300 -0.000001 -0.000001 11.644300 -3.582660 2.779370 6.456720 -0.000001 -0.000000 -9.092600 -1.625160 -4.160660 12.994200 -0.242716 4.980390 -91.088500 4.719400 -76.996600 5.348090 -0.000007 -0.000001 -48.884600 42.040600 -35.067500 24.328600 0.000019 0.000005 6.431240 16.626700 -21.501300 22.291600 -0.000001 0.000005 10.644700 5.244770 1.570600 12.994500 -0.242716 -4.980390 89.767400 0.977437 -76.611700 -5.348130 -0.000001 -0.000004 -74.184000 -13.370200 -81.187500 -24.328900 0.000322 -0.000009 19.391800 -8.562710 -112.928000 -22.291500 -0.000108 -0.000004 23.451700 5.228850 1.985100 -2.192480 -6.469440 -0.000000 -173.939000 -10.784500 -4.583560 39.081100 -0.000007 -0.000012 -0.196590 0.281600 34.919900 40.985400 -0.000006 -0.000013 -0.370190 4.241100 -69.683300 11.754300 -0.000000 0.000003 -0.000130 -0.001288 -16.626700 -2.192510 6.469440 -0.000001 176.268000 19.613600 176.851000 -39.081100 -0.002282 -0.040193 -0.039457 0.063202 34.074800 -40.985400 0.000008 0.000006 6.680240 11.704900 -71.074100 -11.754300 -0.000006 -0.000006 -0.002422 -0.033878 -17.950700
0.000000 0.000000 0.000000 0.000000 0.000000 -0.000000 -0.952431 90.276900 -3.892790 88.768100 -2.182530 10.394100 15.735700 0.000005 -0.000001 86.717100 76.828100 -87.497500 8.984550 -0.406207 -0.000000 18.529000 -1.552330 -1.311210 16.377300 -0.000001 -0.000001 11.632700 -3.602810 2.812030 6.456720 -0.000001 -0.000000 -9.040910 -1.662020 -4.129910 12.994200 -0.242716 4.980390 -91.098800 4.734760 -76.918900 5.348090 -0.000007 -0.000001 -48.828900 42.058100 -35.126400 24.328600 0.000019 0.000005 6.463920 16.660000 -21.563300 22.291600 -0.000001 0.000005 10.603600 5.244450 1.579040 12.994500 -0.242716 -4.980390 89.752300 1.035980 -76.555500 -5.348130 -0.000001 -0.000004 -74.235700 -13.329600 -81.274600 -24.328900 0.000322 -0.000009 19.292400 -8.517490 -112.934000 -22.291500 -0.000108 -0.000004 23.451100 5.230100 1.952820 -2.192480 -6.469440 -0.000000 -173.955000 -10.770000 -4.612580 39.081100 -0.000007 -0.000012 -0.193427 0.277030 34.923800 40.985400 -0.000006 -0.000013 -0.371930 4.220910 -69.671400 11.754300 -0.000000 0.000003 -0.000134 -0.001319 -16.627800 -2.192510 6.469440 -0.000001 176.264000 19.617600 176.821000 -39.081100 -0.002282 -0.040193 -0.043691 0.069488 34.064300 -40.985400 0.000008 0.000006 6.530490 11.753800 -71.011300 -11.754300 -0.000006 -0.000006 -0.002465 -0.034398 -17.971900
0.000000 0.000000 0.000000 0.000000 0.000000 -0.000000 -0.954304 90.277500 -3.912020 88.748200 -2.184100 10.419800 15.735700 0.000005 -0.000001 86.716800 76.816700 -87.485600 8.984550 -0.406207 -0.000000 18.552000 -1.552720 -1.287480 16.377300 -0.000001 -0.000001 11.600800 -3.592280 2.790660 6.456720 -0.000001 -0.000000 -8.955770 -1.697770 -4.124730 12.994200 -0.242716 4.980390 -91.112700 4.780540 -76.881200 5.348090 -0.000007 -0.000001 -48.799700 42.017900 -35.112100 24.328600 0.000019 0.000005 6.439070 16.549900 -21.613500 22.291600 -0.000001 0.000005 10.632200 5.244100 1.588160 12.994500 -0.242716 -4.980390 89.751300 1.038780 -76.536800 -5.348130 -0.000001 -0.000004 -74.255900 -13.277200 -81.341300 -24.328900 0.000322 -0.000009 19.339900 -8.542280 -112.939000 -22.291500 -0.000108 -0.000004 23.576600 5.231050 1.928330 -2.192480 -6.469440 -0.000000 -173.931000 -10.755700 -4.609000 39.081100 -0.000007 -0.000012 -0.194595 0.278591 34.934500 40.985400 -0.000006 -0.000013 -0.374575 4.217940 -69.659600 11.754300 -0.000000 0.000003 -0.000134 -0.001323 -16.628000 -2.192510 6.469440 -0.000001 176.278000 19.637900 176.840000 -39.081100 -0.002282 -0.040193 -0.042464 0.067691 34.057400 -40.985400 0.000008 0.000006 6.565590 11.768400 -71.004600 -11.754300 -0.000006 -0.000006 -0.002359 -0.033127 -17.920200
0.000000 0.000000 0.000000 0.000000 0.000000 -0.000000 -0.954547 90.275600 -3.926450 88.762400 -2.167210 10.462500 15.735700 0.000005 -0.000001 86.704700 76.799200 -87.477300 8.984550 -0.406207 -0.000000 18.586400 -1.560630 -1.293410 16.377300 -0.000001 -0.000001 11.555200 -3.608650 2.808980 6.456720 -0.000001 -0.000000 -8.859610 -1.707080 -4.163000 12.994200 -0.242716 4.980390 -91.120800 4.811760 -76.871300 5.348090 -0.000007 -0.000001 -48.826300 41.919100 -35.075300 24.328600 0.000019 0.000005 6.460190 16.622100 -21.595200 22.291600 -0.000001 0.000005 10.551600 5.245560 1.549640 12.994500 -0.242716 -4.980390 89.751100 1.037460 -76.507600 -5.348130 -0.000001 -0.000004 -74.304500 -13.225200 -81.357800 -24.328900 0.000322 -0.000009 19.292800 -8.527190 -112.957000 -22.291500 -0.000108 -0.000004 23.614600 5.231130 1.926090 -2.192480 -6.469440 -0.000000 -173.949000 -10.725300 -4.584180 39.081100 -0.000007 -0.000012 -0.194358 0.278202 34.939400 40.985400 -0.000006 -0.000013 -0.380379 4.184910 -69.649200 11.754300 -0.000000 0.000003 -0.000126 -0.001252 -16.625400 -2.192510 6.469440 -0.000001 176.235000 19.668300 176.873000 -39.081100 -0.002282 -0.040193 -0.046297 0.073306 34.077600 -40.985400 0.000008 0.000006 6.590070 11.783700 -71.015100 -11.754300 -0.000006 -0.000006 -0.002389 -0.033480 -17.934500
0.000000 0.000000 0.000000 0.000000 0.000000 -0.000000 -0.962216 90.274300 -3.935690 88.766400 -2.116540 10.509500 15.735700 0.000005 -0.000001 86.623200 76.778000 -87.394900 8.984550 -0.406207 -0.000000 18.626700 -1.599920 -1.284730 16.377300 -0.000001 -0.000001 11.522100 -3.619300 2.816190 6.456720 -0.000001 -0.000000 -8.798220 -1.716890 -4.169290 12.994200 -0.242716 4.980390 -91.146400 4.894100 -76.799300 5.348090 -0.000007 -0.000001 -48.640500 41.956700 -35.173600 24.328600 0.000019 0.000005 6.473500 16.674200 -21.576300 22.291600 -0.000001 0.000005 10.669000 5.244640 1.574060 12.994500 -0.242716 -4.980390 89.735800 1.095810 -76.444400 -5.348130 -0.000001 -0.000004 -74.253800 -13.131400 -81.406800 -24.328900 0.000322 -0.000009 19.367000 -8.524460 -112.865000 -22.291500 -0.000108 -0.000004 23.566300 5.228190 2.002220 -2.192480 -6.469440 -0.000000 -173.938000 -10.684000 -4.551970 39.081100 -0.000007 -0.000012 -0.196329 0.281010 34.940600 40.985400 -0.000006 -0.000013 -0.378934 4.228550 -69.638500 11.754300 -0.000000 0.000003 -0.000127 -0.001261 -16.625700 -2.192510 6.469440 -0.000001 176.223000 19.689100 176.918000 -39.081100 -0.002282 -0.040193 -0.043188 0.068697 34.082600 -40.985400 0.000008 0.000006 6.577200 11.769300 -71.012700 -11.754300 -0.000006 -0.000006 -0.002465 -0.034390 -17.971600
